<svg width="25" height="24" viewBox="0 0 25 24" fill="none" xmlns="http://www.w3.org/2000/svg">
<path d="M12.8419 9C12.0426 9 11.276 9.31607 10.7108 9.87868C10.1456 10.4413 9.82802 11.2044 9.82802 12C9.82802 12.7956 10.1456 13.5587 10.7108 14.1213C11.276 14.6839 12.0426 15 12.8419 15C13.6412 15 14.4078 14.6839 14.973 14.1213C15.5382 13.5587 15.8558 12.7956 15.8558 12C15.8558 11.2044 15.5382 10.4413 14.973 9.87868C14.4078 9.31607 13.6412 9 12.8419 9ZM12.8419 17C11.5097 17 10.232 16.4732 9.29001 15.5355C8.34799 14.5979 7.81877 13.3261 7.81877 12C7.81877 10.6739 8.34799 9.40215 9.29001 8.46447C10.232 7.52678 11.5097 7 12.8419 7C14.1741 7 15.4518 7.52678 16.3938 8.46447C17.3358 9.40215 17.865 10.6739 17.865 12C17.865 13.3261 17.3358 14.5979 16.3938 15.5355C15.4518 16.4732 14.1741 17 12.8419 17ZM12.8419 4.5C7.81877 4.5 3.52902 7.61 1.79102 12C3.52902 16.39 7.81877 19.5 12.8419 19.5C17.865 19.5 22.1548 16.39 23.8928 12C22.1548 7.61 17.865 4.5 12.8419 4.5Z" fill="#594FB8"/>
</svg>
